<svg width="10" height="6" viewBox="0 0 10 6" fill="none" xmlns="http://www.w3.org/2000/svg">
<path d="M7.90841 0.741642L4.67508 3.97498L1.44174 0.741642C1.36459 0.66449 1.273 0.60329 1.1722 0.561536C1.07139 0.519782 0.963354 0.498291 0.854245 0.498291C0.745136 0.498291 0.637095 0.519782 0.536292 0.561536C0.435489 0.60329 0.343897 0.66449 0.266746 0.741642C0.189593 0.818793 0.128393 0.910386 0.0866394 1.01119C0.0448847 1.11199 0.0233946 1.22003 0.0233946 1.32914C0.0233946 1.43825 0.0448847 1.54629 0.0866394 1.64709C0.128393 1.7479 0.189593 1.83949 0.266746 1.91664L4.09174 5.74164C4.16884 5.81889 4.26041 5.88018 4.36122 5.922C4.46204 5.96382 4.5701 5.98534 4.67924 5.98534C4.78839 5.98534 4.89645 5.96382 4.99727 5.922C5.09808 5.88018 5.18965 5.81889 5.26675 5.74164L9.09175 1.91664C9.169 1.83955 9.23029 1.74797 9.27211 1.64716C9.31392 1.54635 9.33545 1.43828 9.33545 1.32914C9.33545 1.22 9.31392 1.11193 9.27211 1.01112C9.23029 0.91031 9.169 0.818736 9.09175 0.741642C8.76675 0.424975 8.23341 0.416642 7.90841 0.741642Z" fill="#233C7B"/>
</svg>
